<?xml version="1.0" encoding="UTF-8"?><svg id="Layer_1" xmlns="http://www.w3.org/2000/svg" xmlns:xlink="http://www.w3.org/1999/xlink" viewBox="0 0 2341 703.75"><defs><style>.cls-1{fill:#37579d;}.cls-2{fill:#031a1f;}.cls-3{fill:#26d2d3;}.cls-4{fill:none;}.cls-5{fill:#31307d;}.cls-6{fill:#29c4cc;}.cls-7{fill:#359bbc;}.cls-8{fill:#2eb0c5;}.cls-9{fill:#3484b0;}.cls-10{fill:#346fa6;}.cls-11{fill:#34478d;}.cls-12{fill:#358ab8;}.cls-13{fill:#29dce8;}.cls-14{fill:#0c2654;}.cls-15{clip-path:url(#clippath);}</style><clipPath id="clippath"><path class="cls-4" d="M550.95,407.13c-23.62,70.26-90.1,121.01-168.22,121.01-97.83,0-177.41-79.59-177.41-177.41s79.59-177.41,177.41-177.41c78.12,0,144.6,50.75,168.22,121.01h80.7c-10.47-46.61-33.91-89.4-68.51-124.01-48.19-48.19-112.26-74.73-180.41-74.73s-132.22,26.54-180.41,74.73c-48.19,48.19-74.73,112.26-74.73,180.41s26.54,132.22,74.73,180.41c48.19,48.19,112.26,74.73,180.41,74.73s132.22-26.54,180.41-74.73c34.6-34.6,58.04-77.4,68.51-124.01h-80.7Z"/></clipPath></defs><path class="cls-14" d="M771.05,531.7v-269.42c25.81-7.86,51.76-11.84,77.2-11.84,29.81,0,51.51,7.7,64.5,22.9,13.25,15.51,19.97,39.94,19.97,72.61,0,37.73-5.81,65.32-17.26,82-11.06,16.1-27.8,23.93-51.2,23.93-17.14,0-32.6-2.8-45.95-8.31l-9.37-3.87v92h-37.89ZM849.22,265.76c-11.73,0-23.76,2.16-35.76,6.41l-4.52,1.6v152.75l2.93,2.02c1.86,1.28,5.35,3.06,15.96,5.45,7.57,1.71,14.6,2.58,20.9,2.58,16.92,0,29.24-8.02,35.62-23.21,5.75-13.67,8.54-35.72,8.54-67.41,0-53.21-14.69-80.19-43.67-80.19Z"/><path class="cls-14" d="M1067.16,451.88c-26.12,0-45.76-5.13-58.38-15.25-12.34-9.9-18.33-24.6-18.33-44.95v-136.42h37.89v111.95c0,23.46,2.53,40.05,7.73,50.71,4.05,8.32,12.82,18.25,31.58,18.25,13.86,0,25.76-2.23,35.35-6.63l3.95-1.81v-172.46h38.38v185.8c-4.95,1.52-13.73,3.61-29.32,6.3-17.36,3-33.8,4.51-48.84,4.51Z"/><path class="cls-14" d="M1213.25,447.06v-184.49c2.33-.74,5.53-1.71,9.9-2.97,6.62-1.91,17.02-3.94,30.93-6.03,13.84-2.08,27.72-3.13,41.22-3.13,3.94,0,7.51.24,10.69.72v16.31c-2.54-.34-5.28-.51-8.27-.51-15.95,0-30.15,2.31-42.2,6.86l-4.39,1.66v171.59h-37.89Z"/><path class="cls-14" d="M1474.4,447.06v-120.77c0-21.23-3.39-36.02-10.36-45.21-7.32-9.63-17.88-14.51-31.37-14.51-12.75,0-24.51,2.04-34.96,6.07l-4.34,1.67v172.76h-37.89v-184.93c4.86-1.46,13.48-3.59,28.75-6.6,17.14-3.37,33.77-5.08,49.41-5.08,24.63,0,44.28,5.17,58.41,15.36,13.62,9.84,20.24,24.51,20.24,44.84v136.42h-37.89Z"/><path class="cls-14" d="M1640.91,451.88c-25.34,0-44.31-5.49-56.39-16.32-12.04-10.78-17.89-25.4-17.89-44.69s7.62-33.94,23.29-43.8c16.46-10.36,36.56-15.61,59.73-15.61h38.82v-21.62c0-20.29-8.33-44.49-48.04-44.49-12.53,0-25.47,1.84-38.47,5.47-6.93,1.93-12.7,3.7-17.37,5.33v-14.91c26.34-7.17,49.35-10.8,68.46-10.8,23.61,0,41.83,4.73,54.16,14.07,11.91,9.02,17.7,23.85,17.7,45.34v130.9c-26.07,7.39-54.29,11.13-83.99,11.13ZM1665.18,343.17c-49.74,0-60.18,25.94-60.18,47.69,0,39.75,22.96,48.1,42.22,48.1,16.69,0,28.9-1.91,37.33-5.85l3.91-1.83v-88.11h-23.28Z"/><path class="cls-14" d="M1869.05,451.88c-26.26,0-51.88-3.71-76.22-11.04V170.62h37.89v92.51l9.2-3.51c15.97-6.09,32.14-9.18,48.07-9.18,22.32,0,38.49,7.44,49.46,22.74,11.32,15.79,17.06,40.27,17.06,72.76,0,38.06-6.68,65.65-19.86,81.98-12.82,15.89-34.89,23.95-65.59,23.95ZM1871.48,265.76c-14.18,0-26.56,2.36-36.79,7.03l-3.97,1.81v153.97l4.02,1.79c9.24,4.12,21.27,6.2,35.77,6.2,16.56,0,28.78-8,35.35-23.14,5.93-13.69,8.81-35.77,8.81-67.48,0-27.29-3.19-46.68-9.75-59.29-7.13-13.67-18.69-20.9-33.44-20.9Z"/><path class="cls-14" d="M2013.68,447.06v-191.81h37.89v191.81h-37.89ZM2012.71,203.19v-24.14h39.83v24.14h-39.83Z"/><path class="cls-14" d="M2183.1,451.88c-13.91,0-25.49-1.21-34.42-3.58-8.17-2.17-14.14-5.37-17.74-9.52-3.84-4.42-6.39-8.8-7.57-13.02-1.28-4.6-1.94-10.53-1.94-17.63v-200.99h37.89v48.13h48.06v16.12h-48.06v125.91c0,34.17,21.89,39.27,34.93,39.27,4.42,0,9.72-1,16.03-3.05v15.07c-9.29,2.19-18.41,3.3-27.2,3.3Z"/><rect class="cls-13" x="552.51" y="311.15" width="79.14" height="79.14"/><g class="cls-15"><polygon class="cls-5" points="303.88 640.56 308.59 480.15 271.37 450.8 120.92 482.25 164.62 620.12 303.88 640.56"/><path class="cls-3" d="M559.43,383.7c6.14.1,95.14,12.96,101.17,12.84l-45.61,107.73c-.48-.07-81.78-104.32-81.78-104.32,0,0,23.31-16.3,26.21-16.25Z"/><path class="cls-2" d="M631.32,407.46c-2.9-.05-18.3-4.51-21.21-4.54,1.46-2.38,19.83,2.2,21.21,4.54Z"/><polygon class="cls-3" points="534.34 110.51 472.26 245.69 582.6 261.4 522.21 325.77 668.42 300.43 601.33 156.48 534.34 110.51"/><polygon class="cls-6" points="522.21 325.77 627.78 213.23 472.26 245.69 522.21 325.77"/><polygon class="cls-6" points="371.05 181.88 422.8 65.72 534.34 110.51 472.26 245.69 371.05 181.88"/><polygon class="cls-8" points="315.91 81.61 412.75 199.51 422.8 65.72 315.91 81.61"/><polygon class="cls-7" points="297.72 227.95 315.91 81.61 412.75 199.51 297.72 227.95"/><polygon class="cls-9" points="194.24 134.06 290.79 237.07 297.72 227.95 315.91 81.61 251.25 95.55 194.24 134.06"/><polygon class="cls-10" points="286.09 238.12 163.31 178.71 194.24 134.06 290.79 237.07 286.09 238.12"/><polygon class="cls-10" points="251.48 274.71 94.1 280.56 163.31 178.71 286.09 238.12 251.48 274.71"/><polygon class="cls-1" points="231.53 383.17 103.1 360.11 109.65 242.68 251.48 274.71 231.53 383.17"/><polygon class="cls-11" points="120.92 482.25 271.37 450.8 231.53 383.17 103.1 360.11 120.92 482.25"/><polygon class="cls-1" points="429.16 497.45 442.79 631.65 303.88 640.56 308.59 480.15 429.16 497.45"/><polygon class="cls-12" points="480.54 472.29 587.48 577.13 442.79 631.65 429.16 497.45 480.54 472.29"/><polygon class="cls-8" points="533.22 399.95 480.54 472.29 587.48 577.13 615 504.27 533.22 399.95"/></g></svg>